<?xml version="1.0" encoding="UTF-8"?>
<svg id="Layer_1" data-name="Layer 1" xmlns="http://www.w3.org/2000/svg" viewBox="0 0 24 24">
  <defs>
    <style>
      .cls-1 {
        fill: #fff;
      }

      .cls-2 {
        fill: #3253ff;
      }
    </style>
  </defs>
  <path class="cls-2" d="M11.94,23.56C5.54,23.56,.34,18.36,.34,11.96S5.54,.36,11.94,.36s11.6,5.2,11.6,11.6-5.2,11.6-11.6,11.6ZM11.94,1.34C6.08,1.34,1.32,6.1,1.32,11.96s4.77,10.62,10.62,10.62,10.62-4.77,10.62-10.62S17.8,1.34,11.94,1.34Z"/>
  <path class="cls-1" d="M11.94,1.12C5.96,1.12,1.1,5.98,1.1,11.96s4.86,10.84,10.84,10.84,10.84-4.86,10.84-10.84S17.91,1.12,11.94,1.12Z"/>
  <path class="cls-1" d="M11.94,1.12C5.96,1.12,1.1,5.98,1.1,11.96s4.86,10.84,10.84,10.84,10.84-4.86,10.84-10.84S17.91,1.12,11.94,1.12Z"/>
  <path class="cls-2" d="M9.57,11.55c-.97,0-1.76-.79-1.76-1.76s.79-1.76,1.76-1.76,1.76,.79,1.76,1.76-.79,1.76-1.76,1.76Zm0-3.02c-.7,0-1.26,.57-1.26,1.26s.57,1.26,1.26,1.26,1.26-.57,1.26-1.26-.57-1.26-1.26-1.26Z"/>
  <path class="cls-2" d="M10.11,16.68c-.95,0-1.73-.78-1.73-1.73s.78-1.73,1.73-1.73,1.73,.78,1.73,1.73-.78,1.73-1.73,1.73Zm0-2.96c-.68,0-1.23,.55-1.23,1.23s.55,1.23,1.23,1.23,1.23-.55,1.23-1.23-.55-1.23-1.23-1.23Z"/>
  <path class="cls-2" d="M13.95,14.19c-.5,0-.91-.41-.91-.91s.41-.91,.91-.91,.91,.41,.91,.91-.41,.91-.91,.91Zm0-1.57c-.36,0-.66,.3-.66,.66s.3,.66,.66,.66,.66-.3,.66-.66-.3-.66-.66-.66Z"/>
  <circle class="cls-2" cx="14.42" cy="10.8" r=".64"/>
  <circle class="cls-2" cx="7.06" cy="12.56" r=".7"/>
  <circle class="cls-2" cx="14.54" cy="16.1" r=".68"/>
  <path class="cls-2" d="M18.99,14.68c.07-.17,.13-.35,.18-.53,.02-.05,.03-.1,.05-.15,.04-.14,.07-.28,.1-.42,.02-.09,.04-.18,.06-.27,.02-.11,.03-.21,.05-.32,.02-.12,.04-.25,.05-.37,0-.09,0-.17,.01-.26,0-.14,.02-.28,.02-.42,0-.09,0-.18,0-.27,0-.13,0-.26-.02-.39-.01-.14-.03-.27-.05-.4-.01-.08-.02-.15-.03-.23-.15-.89-.46-1.74-.89-2.49l-.17-.3c-.03-.06-.1-.08-.16-.05l-.31,.16c-.72,.37-1.44,.38-1.96,.02-.33-.22-.56-.58-.67-1.04l-.12-.52s-.04-.07-.08-.09c-.04-.02-.08-.01-.11,.01l-.45,.3c-.69,.47-1.43,.57-2.03,.27-.64-.32-1.01-1.06-.99-1.97v-.43s0-.07-.04-.09c-.03-.02-.06-.03-.1-.03l-.21,.03s0,0,0,0h0c-3.31,.47-6.08,2.96-6.62,6.25-.15,.93-.12,1.84,.04,2.69,0,.03,0,.05,.01,.08,.05,.24,.12,.47,.19,.7,.02,.06,.03,.12,.05,.18,.08,.24,.18,.47,.28,.7,.02,.04,.03,.09,.06,.14,.59,1.25,1.52,2.3,2.66,3.06,.05,.03,.1,.07,.15,.1,.15,.09,.3,.18,.46,.27,.09,.05,.17,.09,.26,.13,.14,.07,.29,.14,.44,.2,.11,.04,.21,.08,.32,.12,.26,.09,.52,.17,.79,.24,.11,.03,.23,.06,.34,.08,.15,.03,.31,.05,.47,.07,.11,.01,.23,.03,.34,.04,.16,.01,.32,.02,.48,.02,.04,0,.08,0,.12,0,.07,0,.14,0,.21-.01,.18,0,.36,0,.54-.03,.12-.01,.23-.03,.35-.05,.16-.02,.32-.03,.48-.07,.73-.15,1.43-.42,2.08-.8,.22-.13,.43-.26,.64-.41,1.35-.98,2.23-2.18,2.74-3.44,0,0,0-.02,.01-.03Zm-3.53-6.01c.7,.47,1.63,.53,2.55,.18,.5,.96,.76,2.03,.76,3.11,0,4.13-3.7,7.42-7.96,6.72-2.71-.44-4.93-2.56-5.52-5.24-.84-3.83,1.68-7.42,5.29-8.15,.1,1.07,.64,1.93,1.48,2.35,.75,.38,1.66,.34,2.52-.08,.19,.47,.49,.85,.89,1.12Z"/>
</svg>