<svg width="16" height="12" viewBox="0 0 16 12" fill="none" xmlns="http://www.w3.org/2000/svg">
<path fill-rule="evenodd" clip-rule="evenodd" d="M15.0277 6.5134C14.9967 6.54602 14.9594 6.57101 14.9186 6.58667L9.53219 11.6507C9.50219 11.6829 9.46659 11.7085 9.4274 11.726C9.38821 11.7434 9.34622 11.7524 9.30381 11.7524C9.26139 11.7524 9.2194 11.7434 9.18021 11.726C9.14102 11.7085 9.10542 11.6829 9.07542 11.6507C9.04543 11.6184 9.02158 11.5801 9.00534 11.538C8.98911 11.4959 8.98079 11.4508 8.98079 11.4052C8.98079 11.3596 8.98911 11.3145 9.00534 11.2723C9.02158 11.2302 9.04543 11.1919 9.07542 11.1597L13.9095 6.61601H0.450406C0.359991 6.61601 0.273306 6.57738 0.209373 6.50866C0.14544 6.43995 0.109497 6.34677 0.109497 6.24959C0.109497 6.15241 0.14544 6.05924 0.209373 5.99052C0.273306 5.9218 0.359991 5.88317 0.450406 5.88317H13.9095L9.07542 1.3469C9.01484 1.28179 8.98079 1.19342 8.98079 1.10134C8.98079 1.00926 9.01484 0.920976 9.07542 0.855865C9.136 0.790753 9.21813 0.75415 9.30381 0.75415C9.38947 0.75415 9.47161 0.790753 9.53219 0.855865L14.9186 5.91985C14.9606 5.93272 14.9985 5.95811 15.0277 5.99311C15.0277 5.99311 15.0277 6.05174 15.0277 6.08105C15.0302 6.10295 15.0302 6.12508 15.0277 6.14698C15.0623 6.20084 15.0808 6.26474 15.0808 6.33019C15.0808 6.39564 15.0623 6.45955 15.0277 6.5134Z" fill="#3253FF"/>
</svg>
