<?xml version="1.0" encoding="utf-8"?>
<!-- Generator: Adobe Illustrator 26.0.1, SVG Export Plug-In . SVG Version: 6.00 Build 0)  -->
<svg version="1.1" id="Layer_2_1_" xmlns="http://www.w3.org/2000/svg" xmlns:xlink="http://www.w3.org/1999/xlink" x="0px" y="0px"
	 viewBox="0 0 844.4 213" style="enable-background:new 0 0 844.4 213;" xml:space="preserve">
<style type="text/css">
	.st0{fill:#141C36;}
</style>
<g>
	<g>
		<path class="st0" d="M820,154.6h-3.7v-2.1h9.6v2.1h-3.7v9.8H820V154.6z M827.8,152.6h2.4l3.6,5.7l3.6-5.7h2.4v11.9h-2.2V156
			l-3.7,5.7h-0.2l-3.7-5.7v8.5h-2.2V152.6z"/>
	</g>
	<path class="st0" d="M26.2,55.2L24.8,58c-0.3,0.5-0.9,0.8-1.4,0.5c-2.4-1.3-5.2-2-7.4-2c-2.5,0-4.3,0.8-4.3,2.9
		c0,5.4,15.5,2.5,15.4,13c0,6-5.3,8.6-11.2,8.6c-3.9,0-8.1-1.2-11-3.5c-0.4-0.3-0.6-0.9-0.3-1.3l1.3-2.6c0.3-0.6,1-0.8,1.6-0.4
		c2.5,1.8,6,2.8,8.7,2.8c2.7,0,4.8-0.9,4.8-3.1c0-6-15.3-2.6-15.3-13.1c0-5.9,5.1-8.4,10.7-8.4c3.3,0,6.7,0.9,9.3,2.4
		C26.2,54.1,26.4,54.7,26.2,55.2z M37.6,73v6.6c0,0.6-0.5,1.1-1.1,1.1h-4.1c-0.6,0-1.1-0.5-1.1-1.1V41.2c0-0.6,0.5-1.1,1.1-1.1h4.1
		c0.6,0,1.1,0.5,1.1,1.1V62c0,1,1.2,1.4,1.8,0.8L50.1,52c0.2-0.2,0.5-0.3,0.8-0.3h4.3c0.9,0,1.4,1.1,0.8,1.8l-8.4,8.8
		c-0.3,0.4-0.4,0.9-0.1,1.3l10,15.5c0.5,0.7,0,1.7-0.9,1.7h-4.9c-0.4,0-0.7-0.2-0.9-0.5l-7.5-11.7c-0.4-0.6-1.2-0.7-1.7-0.2
		l-3.7,3.9C37.7,72.5,37.6,72.7,37.6,73z M67.9,43.3c0,2.2-1.6,3.8-3.7,3.8c-2.1,0-3.7-1.6-3.7-3.8c0-2.2,1.6-3.8,3.7-3.8
		C66.3,39.5,67.9,41.1,67.9,43.3z M61.2,79.7V52.7c0-0.6,0.5-1.1,1.1-1.1h4.1c0.6,0,1.1,0.5,1.1,1.1v26.9c0,0.6-0.5,1.1-1.1,1.1
		h-4.1C61.6,80.7,61.2,80.3,61.2,79.7z M72.9,79.7V41.2c0-0.6,0.5-1.1,1.1-1.1h4.1c0.6,0,1.1,0.5,1.1,1.1v38.4
		c0,0.6-0.5,1.1-1.1,1.1h-4.1C73.3,80.7,72.9,80.3,72.9,79.7z M84.9,79.7V41.2c0-0.6,0.5-1.1,1.1-1.1h4.1c0.6,0,1.1,0.5,1.1,1.1
		v38.4c0,0.6-0.5,1.1-1.1,1.1H86C85.4,80.7,84.9,80.3,84.9,79.7z M117,55.2l-1.4,2.8c-0.3,0.5-0.9,0.8-1.4,0.5c-2.4-1.3-5.2-2-7.4-2
		c-2.5,0-4.3,0.8-4.3,2.9c0,5.4,15.5,2.5,15.4,13c0,6-5.3,8.6-11.2,8.6c-3.9,0-8.1-1.2-11-3.5c-0.4-0.3-0.6-0.9-0.3-1.3l1.3-2.6
		c0.3-0.6,1-0.8,1.6-0.4c2.5,1.8,6,2.8,8.7,2.8c2.7,0,4.8-0.9,4.8-3.1c0-6-15.3-2.6-15.3-13.1c0-5.9,5.1-8.4,10.7-8.4
		c3.3,0,6.7,0.9,9.3,2.4C117,54.1,117.2,54.7,117,55.2z M151.6,66.2c0,8.7-6.2,14.8-15.1,14.8c-9,0-15.2-6-15.2-14.8
		c0-8.8,6.2-14.8,15.2-14.8C145.4,51.4,151.6,57.4,151.6,66.2z M127.5,66.2c0,5.6,3.7,9.5,8.9,9.5c5.2,0,8.9-3.8,8.9-9.5
		c0-5.6-3.7-9.4-8.9-9.4C131.2,56.8,127.5,60.7,127.5,66.2z M163.6,49.3v2.4c0,0.6,0.5,1.1,1.1,1.1h5.5c0.6,0,1.1,0.5,1.1,1.1v2.6
		c0,0.6-0.5,1.1-1.1,1.1h-5.5c-0.6,0-1.1,0.5-1.1,1.1v21.1c0,0.6-0.5,1.1-1.1,1.1h-4.1c-0.6,0-1.1-0.5-1.1-1.1V58.5
		c0-0.6-0.5-1.1-1.1-1.1h-1.7c-0.6,0-1.1-0.5-1.1-1.1v-2.6c0-0.6,0.5-1.1,1.1-1.1h1.7c0.6,0,1.1-0.5,1.1-1.1v-1.8c0-6.8,5-10,10-10
		c2,0,4,0.5,5.7,1.5c0.5,0.3,0.7,0.9,0.4,1.4l-1.5,2.9c-0.3,0.5-0.9,0.7-1.5,0.5c-1-0.5-2.1-0.8-3-0.8
		C165.4,45.4,163.6,46.6,163.6,49.3z M192.1,78c0.2,0.5,0,1-0.5,1.3c-2.1,1.1-4.2,1.7-6.4,1.7c-4.4,0-8.1-2.5-8.1-8.5v-14
		c0-0.6-0.5-1.1-1.1-1.1h-2c-0.6,0-1.1-0.5-1.1-1.1v-2.6c0-0.6,0.5-1.1,1.1-1.1h2c0.6,0,1.1-0.5,1.1-1.1v-5.8c0-0.6,0.5-1.1,1.1-1.1
		h4.1c0.6,0,1.1,0.5,1.1,1.1v5.8c0,0.6,0.5,1.1,1.1,1.1h6.4c0.6,0,1.1,0.5,1.1,1.1v2.6c0,0.6-0.5,1.1-1.1,1.1h-6.4
		c-0.6,0-1.1,0.5-1.1,1.1v12.9c0,3,1.1,3.9,3.1,3.9c1,0,2.1-0.3,3.3-0.8c0.6-0.2,1.2,0.1,1.4,0.6L192.1,78z M192.4,30.9v13.7
		c0,1.1,1.2,1.8,2.1,1.2l11.9-6.9c0.9-0.5,0.9-1.9,0-2.4l-11.9-6.9C193.6,29.1,192.4,29.8,192.4,30.9z M211.8,30.9v13.7
		c0,1.1,1.2,1.8,2.1,1.2l11.9-6.9c0.9-0.5,0.9-1.9,0-2.4l-11.9-6.9C212.9,29.1,211.8,29.8,211.8,30.9z M202.1,47.7v13.7
		c0,1.1,1.2,1.8,2.1,1.2l11.9-6.9c0.9-0.5,0.9-1.9,0-2.4l-11.9-6.9C203.3,46,202.1,46.6,202.1,47.7z"/>
	<g>
		<path class="st0" d="M56.7,159.3c0,14.9-10.6,24.2-26.8,24.2c-7.2,0-13.6-2-19.4-5.5c-1.2-0.7-1.5-2.3-0.8-3.4l2.1-3.6
			c0.7-1.2,2.3-1.6,3.5-0.9c4.2,2.7,8.7,4.2,14.1,4.2c9.8,0,16.2-5.7,16.2-14.7v-6.5c-3.5,5.6-9.3,8.7-17.1,8.7
			c-14,0-23.3-10.1-23.3-24.9c0-14.6,9.2-24.5,22.9-24.6c8-0.1,13.9,3.1,17.5,8.7v-5.8c0-1.4,1.1-2.5,2.5-2.5h6
			c1.4,0,2.5,1.1,2.5,2.5V159.3z M45.6,137.2c0-9.3-6.1-15.8-14.9-15.8c-8.8,0-15,6.6-15,15.8c0.1,9.3,6.1,15.9,15,15.9
			C39.5,153.1,45.6,146.5,45.6,137.2z"/>
		<path class="st0" d="M69.3,161.9v-67c0-1.4,1.1-2.5,2.5-2.5h6.1c1.4,0,2.5,1.1,2.5,2.5v67c0,1.4-1.1,2.5-2.5,2.5h-6.1
			C70.4,164.4,69.3,163.3,69.3,161.9z"/>
		<path class="st0" d="M143,138.6c0,15.5-11,26.2-26.9,26.2c-16,0-27-10.7-27-26.2c0-15.6,11-26.2,27-26.2
			C132.1,112.4,143,122.9,143,138.6z M100.3,138.7c0,10,6.5,16.8,15.8,16.8c9.2,0,15.7-6.8,15.7-16.8c0-9.9-6.5-16.7-15.7-16.7
			C106.8,122,100.3,128.8,100.3,138.7z"/>
		<path class="st0" d="M205.7,138.8c0,15.4-9.7,26-24.5,26c-8.3,0-14.5-3.3-18.2-9.3v6.4c0,1.4-1.1,2.5-2.5,2.5h-6.1
			c-1.4,0-2.5-1.1-2.5-2.5v-67c0-1.4,1.1-2.5,2.5-2.5h6.1c1.4,0,2.5,1.1,2.5,2.5V115c0,2.1,2.4,3.4,4,2c3.6-3,8.4-4.7,14-4.7
			C195.7,112.4,205.7,123,205.7,138.8z M194.4,138.4c0-9.6-6.5-16.7-15.7-16.7c-9.2,0-15.7,7-15.7,16.7c0,10,6.5,16.9,15.7,16.9
			C187.9,155.3,194.4,148.3,194.4,138.4z"/>
		<path class="st0" d="M244.9,158.1c-3.7,4.6-9.6,6.8-17.1,6.8c-11.2,0-18.2-6.9-18.2-16c0-9.4,7.1-15.4,19.5-15.5h15.6v-1.6
			c0-6.5-4.2-10.4-12.3-10.4c-4.2,0-8.6,1.3-13,3.9c-1.2,0.7-2.8,0.4-3.5-0.9l-2-3.3c-0.7-1.2-0.3-2.8,1-3.5
			c6.1-3.4,11.2-5.2,20-5.2c13.3,0,20.8,6.8,20.9,18.2l0.1,31.3c0,1.4-1.1,2.5-2.5,2.5h-5.9c-1.4,0-2.5-1.1-2.5-2.5V158.1z
			 M244.8,146.2V144c0-1.4-1.1-2.5-2.5-2.5h-11.5c-7.3,0-10.7,1.9-10.7,6.9c0,4.7,3.8,7.7,10,7.7C238.1,156,244.2,151.9,244.8,146.2
			z"/>
		<path class="st0" d="M267.9,161.9v-67c0-1.4,1.1-2.5,2.5-2.5h6.1c1.4,0,2.5,1.1,2.5,2.5v67c0,1.4-1.1,2.5-2.5,2.5h-6.1
			C269,164.4,267.9,163.3,267.9,161.9z"/>
		<path class="st0" d="M325.9,150.9v10.9c0,1.4-1.1,2.5-2.5,2.5h-6.1c-1.4,0-2.5-1.1-2.5-2.5v-67c0-1.4,1.1-2.5,2.5-2.5h6.1
			c1.4,0,2.5,1.1,2.5,2.5v34.8c0,2.3,2.7,3.4,4.3,1.8l17.7-18c0.5-0.5,1.1-0.8,1.8-0.8h5.9c2.2,0,3.4,2.7,1.8,4.3l-13.7,14.3
			c-0.8,0.8-0.9,2.1-0.3,3.1l17,26.1c1.1,1.7-0.1,3.9-2.1,3.9h-7.2c-0.9,0-1.7-0.4-2.1-1.2l-12.7-19.8c-0.9-1.4-2.8-1.6-4-0.4
			l-5.8,6.1C326.2,149.7,325.9,150.3,325.9,150.9z"/>
		<path class="st0" d="M418,132.3v29.6c0,1.4-1.1,2.5-2.5,2.5h-6.1c-1.4,0-2.5-1.1-2.5-2.5v-26.5c0-7.8-4.7-12.5-12.4-12.5
			c-8.5,0.1-13.9,6-14.7,14.1v24.9c0,1.4-1.1,2.5-2.5,2.5h-6.1c-1.4,0-2.5-1.1-2.5-2.5v-46.6c0-1.4,1.1-2.5,2.5-2.5h6.1
			c1.4,0,2.5,1.1,2.5,2.5v0c0,2.2,2.6,3.3,4.2,1.8c3.7-3.3,8.8-4.8,14.8-4.8C410.9,112.4,418,119.9,418,132.3z"/>
		<path class="st0" d="M478.6,138.6c0,15.5-11,26.2-26.9,26.2c-16,0-27-10.7-27-26.2c0-15.6,11-26.2,27-26.2
			C467.6,112.4,478.6,122.9,478.6,138.6z M435.9,138.7c0,10,6.5,16.8,15.8,16.8c9.2,0,15.7-6.8,15.7-16.8c0-9.9-6.5-16.7-15.7-16.7
			C442.4,122,435.9,128.8,435.9,138.7z"/>
		<path class="st0" d="M532.9,162.7l-10.1-29.6c-0.8-2.3-4-2.3-4.8,0l-10.1,29.6c-0.3,1-1.3,1.7-2.4,1.7h-7.9c-1.1,0-2-0.7-2.4-1.7
			L478,116.1c-0.6-1.6,0.6-3.4,2.4-3.4h6c1.1,0,2.1,0.7,2.4,1.7l10.4,31.5c0.8,2.3,4.1,2.3,4.8,0l10.1-31.4c0.3-1,1.3-1.8,2.4-1.8
			h7.9c1.1,0,2.1,0.7,2.4,1.7l10.1,31.4c0.8,2.3,4,2.3,4.8,0l10.2-31.4c0.3-1,1.3-1.7,2.4-1.7h5.9c1.8,0,3,1.7,2.4,3.4l-17,46.6
			c-0.4,1-1.3,1.7-2.4,1.7h-8C534.2,164.4,533.2,163.7,532.9,162.7z"/>
		<path class="st0" d="M568.7,161.9v-67c0-1.4,1.1-2.5,2.5-2.5h6.1c1.4,0,2.5,1.1,2.5,2.5v67c0,1.4-1.1,2.5-2.5,2.5h-6.1
			C569.8,164.4,568.7,163.3,568.7,161.9z"/>
		<path class="st0" d="M636.5,142.8h-33.1c-1.8,0-3.1,1.8-2.4,3.5c2.6,5.9,8,9.5,14.9,9.5c4.8,0,9.3-1.6,12.9-4.5
			c1-0.8,2.5-0.7,3.4,0.3l2.5,2.7c1,1.1,0.9,2.7-0.2,3.7c-4.9,4.4-11.6,6.9-19.5,6.9c-15.9,0-26.4-10.6-26.4-26.1
			c0-15.6,10.8-26.2,26.1-26.3c17.4,0,24.9,10.8,24.3,28.1C638.9,141.8,637.8,142.8,636.5,142.8z M626.3,134.7c1.6,0,2.8-1.5,2.5-3
			c-1.4-6.5-6.6-10.4-14-10.4c-7,0-12.2,3.8-14.3,10.1c-0.5,1.6,0.7,3.3,2.4,3.3H626.3z"/>
		<path class="st0" d="M693.8,164.4h-6.1c-1.4,0-2.5-1.1-2.5-2.5v-6.3c-3.7,6-9.9,9.3-18.2,9.3c-14.9,0-24.8-10.8-24.8-26.5
			c0-15.5,10-26.1,24.6-26.1c5.8,0,10.6,1.7,14.3,4.7c1.6,1.3,4.1,0.1,4.1-2V94.9c0-1.4,1.1-2.5,2.5-2.5h6.1c1.4,0,2.5,1.1,2.5,2.5
			v67C696.3,163.3,695.2,164.4,693.8,164.4z M685.2,138.8c0-10-6.5-17-15.8-17c-9.3,0-15.8,7.1-15.9,17c0.1,9.8,6.5,16.8,15.9,16.8
			C678.7,155.6,685.2,148.6,685.2,138.8z"/>
		<path class="st0" d="M756.5,159.3c0,14.9-10.6,24.2-26.8,24.2c-7.2,0-13.6-2-19.4-5.5c-1.2-0.7-1.5-2.3-0.8-3.4l2.1-3.6
			c0.7-1.2,2.3-1.6,3.5-0.9c4.2,2.7,8.7,4.2,14.1,4.2c9.8,0,16.2-5.7,16.2-14.7v-6.5c-3.5,5.6-9.3,8.7-17.1,8.7
			c-14,0-23.3-10.1-23.3-24.9c0-14.6,9.2-24.5,22.9-24.6c8-0.1,13.9,3.1,17.5,8.7v-5.8c0-1.4,1.1-2.5,2.5-2.5h6
			c1.4,0,2.5,1.1,2.5,2.5V159.3z M745.4,137.2c0-9.3-6.1-15.8-14.9-15.8c-8.8,0-14.9,6.6-15,15.8c0.1,9.3,6.1,15.9,15,15.9
			C739.3,153.1,745.4,146.5,745.4,137.2z"/>
		<path class="st0" d="M811.7,142.8h-33.1c-1.8,0-3.1,1.8-2.4,3.5c2.6,5.9,8,9.5,14.9,9.5c4.8,0,9.3-1.6,12.9-4.5
			c1-0.8,2.5-0.7,3.4,0.3l2.5,2.7c1,1.1,0.9,2.7-0.2,3.7c-4.9,4.4-11.6,6.9-19.5,6.9c-15.9,0-26.4-10.6-26.4-26.1
			c0-15.6,10.8-26.2,26.1-26.3c17.4,0,24.9,10.8,24.3,28.1C814.2,141.8,813,142.8,811.7,142.8z M801.5,134.7c1.6,0,2.8-1.5,2.5-3
			c-1.4-6.5-6.6-10.4-14-10.4c-7,0-12.2,3.8-14.3,10.1c-0.5,1.6,0.7,3.3,2.4,3.3H801.5z"/>
	</g>
</g>
</svg>
