<svg version="1.1" id="Layer_1" xmlns="http://www.w3.org/2000/svg" x="0" y="0" viewBox="0 0 285.4 295" xml:space="preserve"><style>.st0{fill:#434690}</style><g id="Group_2230" transform="translate(-451.128 -226.231)"><path id="Path_493" class="st0" d="M577 290.1l-107.2-61.9c-6-3.4-13.6-1.4-17 4.5-1.1 1.9-1.7 4.1-1.7 6.3v121.5c0 6.9 5.6 12.5 12.4 12.5 2.2 0 4.4-.6 6.3-1.7L577 309.5c5.3-3.1 7.2-9.9 4.1-15.3-1-1.7-2.4-3.1-4.1-4.1"/><path id="Path_494" class="st0" d="M731.2 290.5l-108.5-62.6c-5.8-3.3-13.1-1.4-16.4 4.4-1.1 1.8-1.6 3.9-1.6 6v123.1c0 6.6 5.4 12 12 12 2.1 0 4.2-.6 6-1.6l108.5-62.7c5.1-3 6.9-9.5 3.9-14.7-.9-1.6-2.3-2.9-3.9-3.9"/><path id="Path_495" class="st0" d="M655.9 438.2l-105.5-60.9c-6.2-3.6-14.2-1.5-17.8 4.8-1.1 2-1.8 4.2-1.7 6.5v119.6c0 7.2 5.9 13 13.1 13 2.3 0 4.5-.6 6.5-1.7L656 458.6c5.6-3.2 7.5-10.4 4.3-16-1.1-1.9-2.6-3.3-4.4-4.4"/></g></svg>